<svg width="2362" height="600" viewBox="0 0 2362 600" fill="none" xmlns="http://www.w3.org/2000/svg">
    <g filter="url(#filter0_i_363_236)">
        <path fill-rule="evenodd" clip-rule="evenodd" d="M600 300C600 465.685 465.685 600 300 600C167.253 600 54.6429 513.78 15.1159 394.286C7.61291 371.604 25.9139 350 49.8049 350V350C67.8486 350 83.1588 362.646 89.5374 379.525C121.666 464.543 203.813 525 300.08 525C424.344 525 525.08 424.264 525.08 300C525.08 175.736 424.344 75 300.08 75C203.813 75 121.666 135.457 89.5374 220.475C83.1588 237.354 67.8486 250 49.8049 250V250C25.9139 250 7.6129 228.396 15.1159 205.714C54.6428 86.2198 167.253 0 300 0C465.685 0 600 134.315 600 300ZM0.0800781 292.999C0.0267894 295.326 0 297.66 0 300C0 302.34 0.0267894 304.674 0.0800781 307.001V292.999ZM425.08 300C425.08 369.036 369.116 425 300.08 425C231.044 425 175.08 369.036 175.08 300C175.08 230.964 231.044 175 300.08 175C369.116 175 425.08 230.964 425.08 300ZM300.082 350C327.696 350 350.082 327.614 350.082 300C350.082 272.386 327.696 250 300.082 250C272.468 250 250.082 272.386 250.082 300C250.082 327.614 272.468 350 300.082 350Z" fill="url(#paint0_linear_363_236)"/>
    </g>
    <path d="M769.324 431.611C769.324 428.389 770.74 425.557 773.572 423.115C776.404 420.674 779.432 419.453 782.654 419.453C785.975 419.453 788.904 420.381 791.443 422.236C794.08 424.092 795.789 426.387 796.57 429.121L825.867 528.584L860.584 431.025H860.73C863.172 426.729 867.469 424.58 873.621 424.58C876.453 424.58 879.09 425.215 881.531 426.484C883.973 427.656 885.682 429.219 886.658 431.172V431.318L920.35 526.24L947.449 429.268C948.23 426.631 949.842 424.336 952.283 422.383C954.725 420.43 957.703 419.453 961.219 419.453C964.344 419.453 967.371 420.625 970.301 422.969C973.23 425.215 974.695 428.047 974.695 431.465C974.695 433.613 974.5 435.322 974.109 436.592L935.73 571.943C935.047 574.385 933.436 576.68 930.896 578.828C928.455 580.879 925.623 581.904 922.4 581.904C919.373 581.904 916.639 581.074 914.197 579.414C911.854 577.656 910.193 575.605 909.217 573.262L873.768 475.264L837.732 574.141C836.756 576.777 834.998 578.877 832.459 580.439C830.018 582.1 827.332 582.93 824.402 582.93C821.375 582.93 818.592 582.002 816.053 580.146C813.611 578.291 812 575.996 811.219 573.262L769.764 436.738C769.471 435.273 769.324 433.564 769.324 431.611ZM1095.96 418.867C1103.18 418.867 1110.21 420.332 1117.05 423.262C1123.98 426.094 1130.13 429.707 1135.51 434.102C1140.97 438.398 1145.03 442.842 1147.66 447.432L1149.28 433.369C1149.28 429.365 1150.45 425.947 1152.79 423.115C1155.13 420.186 1158.31 418.721 1162.31 418.721C1166.32 418.721 1169.73 420.186 1172.57 423.115C1175.5 425.947 1176.96 429.365 1176.96 433.369V433.662L1176.67 569.307C1176.67 573.311 1175.2 576.777 1172.27 579.707C1169.44 582.539 1166.02 583.955 1162.02 583.955C1158.02 583.955 1154.84 582.539 1152.5 579.707C1150.15 576.777 1148.98 573.311 1148.98 569.307L1147.37 557.588C1142.29 566.279 1134.87 572.773 1125.11 577.07C1115.34 581.27 1105.53 583.369 1095.66 583.369C1084.63 583.369 1074.28 581.221 1064.61 576.924C1054.94 572.529 1046.44 566.523 1039.12 558.906C1031.79 551.289 1026.03 542.549 1021.83 532.686C1017.73 522.822 1015.68 512.422 1015.68 501.484C1015.68 490.645 1017.68 480.293 1021.69 470.43C1025.79 460.469 1031.45 451.631 1038.68 443.916C1046 436.104 1054.5 430 1064.17 425.605C1073.93 421.113 1084.53 418.867 1095.96 418.867ZM1146.49 501.191C1146.49 491.621 1144.25 482.832 1139.75 474.824C1135.36 466.816 1129.35 460.371 1121.74 455.488C1114.12 450.605 1105.43 448.164 1095.66 448.164C1086.09 448.164 1077.45 450.605 1069.73 455.488C1062.02 460.371 1055.92 466.865 1051.42 474.971C1046.93 482.979 1044.69 491.67 1044.69 501.045C1044.69 510.518 1046.98 519.307 1051.57 527.412C1056.16 535.42 1062.31 541.865 1070.03 546.748C1077.84 551.631 1086.43 554.072 1095.81 554.072C1105.18 554.072 1113.68 551.631 1121.3 546.748C1129.01 541.865 1135.12 535.42 1139.61 527.412C1144.2 519.307 1146.49 510.566 1146.49 501.191ZM1249.44 366.279C1254.13 366.279 1257.89 367.842 1260.72 370.967C1263.55 373.994 1264.92 377.314 1264.82 380.928V569.6C1264.82 573.506 1263.26 576.68 1260.13 579.121C1257.11 581.465 1254.08 582.637 1251.05 582.637C1246.85 582.637 1243.19 581.27 1240.07 578.535C1237.04 575.801 1235.53 572.285 1235.53 567.988V380.928C1235.53 377.217 1236.84 373.848 1239.48 370.82C1242.21 367.793 1245.54 366.279 1249.44 366.279ZM1336.57 366.279C1341.26 366.279 1345.02 367.842 1347.85 370.967C1350.68 373.994 1352.05 377.314 1351.95 380.928V569.6C1351.95 573.506 1350.39 576.68 1347.26 579.121C1344.24 581.465 1341.21 582.637 1338.18 582.637C1333.98 582.637 1330.32 581.27 1327.2 578.535C1324.17 575.801 1322.65 572.285 1322.65 567.988V380.928C1322.65 377.217 1323.97 373.848 1326.61 370.82C1329.34 367.793 1332.66 366.279 1336.57 366.279ZM1481.12 420.039C1494.11 420.039 1506.02 423.262 1516.86 429.707C1527.7 436.152 1536.39 444.844 1542.94 455.781C1549.58 466.621 1552.9 478.682 1552.9 491.963C1552.9 494.697 1552.75 497.48 1552.46 500.312C1552.07 503.926 1550.41 507.002 1547.48 509.541C1544.65 511.982 1541.42 513.203 1537.81 513.203L1435.42 513.35C1437.08 520.381 1440.2 526.973 1444.79 533.125C1449.38 539.277 1454.95 544.258 1461.49 548.066C1468.13 551.875 1475.36 553.779 1483.17 553.779C1491.57 553.779 1499.09 551.729 1505.73 547.627C1512.37 543.525 1517.55 538.789 1521.26 533.418C1522.43 531.562 1524.19 530 1526.53 528.73C1528.97 527.461 1531.27 526.826 1533.42 526.826C1537.42 526.826 1540.84 528.291 1543.67 531.221C1546.6 534.15 1548.06 537.617 1548.06 541.621C1548.06 544.746 1547.19 547.529 1545.43 549.971C1539.37 558.857 1531.02 566.572 1520.38 573.115C1509.83 579.561 1497.58 582.783 1483.61 582.783C1472.38 582.783 1461.93 580.586 1452.26 576.191C1442.69 571.797 1434.34 565.791 1427.21 558.174C1420.09 550.557 1414.52 541.816 1410.52 531.953C1406.61 521.992 1404.66 511.494 1404.66 500.459C1404.66 489.814 1406.61 479.707 1410.52 470.137C1414.42 460.469 1419.84 451.875 1426.78 444.355C1433.81 436.836 1441.96 430.928 1451.24 426.631C1460.52 422.236 1470.48 420.039 1481.12 420.039ZM1522.72 483.906C1520.87 474.336 1516.08 466.182 1508.37 459.443C1500.65 452.705 1491.57 449.336 1481.12 449.336C1470.48 449.336 1461.05 452.803 1452.85 459.736C1444.74 466.67 1439.28 474.775 1436.44 484.053L1522.72 483.906ZM1628.31 393.379C1628.31 389.375 1629.72 385.957 1632.56 383.125C1635.39 380.195 1638.86 378.73 1642.96 378.73C1646.96 378.73 1650.38 380.195 1653.21 383.125C1656.14 385.957 1657.61 389.375 1657.61 393.379V422.529H1677.23C1681.04 422.529 1684.31 423.896 1687.05 426.631C1689.78 429.365 1691.15 432.637 1691.15 436.445C1691.15 440.254 1689.78 443.525 1687.05 446.26C1684.31 448.994 1681.04 450.361 1677.23 450.361H1657.46L1657.31 541.035V541.328C1657.31 546.113 1657.85 549.434 1658.92 551.289C1660 553.047 1662.2 553.926 1665.52 553.926C1669.71 553.926 1673.43 552.803 1676.65 550.557C1677.82 549.775 1679.24 549.092 1680.9 548.506C1682.56 547.822 1684.17 547.48 1685.73 547.48C1689.73 547.48 1693.15 548.896 1695.98 551.729C1698.91 554.561 1700.38 557.979 1700.38 561.982C1700.38 566.768 1698.43 570.625 1694.52 573.555C1690.81 576.387 1686.56 578.73 1681.78 580.586C1676.99 582.441 1671.86 583.369 1666.39 583.369C1654.09 583.369 1644.62 579.609 1637.98 572.09C1631.34 564.473 1628.02 555 1628.02 543.672V542.354L1628.16 450.508H1609.27C1605.46 450.508 1602.19 449.141 1599.45 446.406C1596.72 443.672 1595.35 440.4 1595.35 436.592C1595.35 432.783 1596.72 429.512 1599.45 426.777C1602.19 424.043 1605.46 422.676 1609.27 422.676H1628.31V393.379Z" fill="url(#paint1_linear_363_236)"/>
    <path d="M764.648 155.408C764.648 137.342 767.822 120.171 774.17 103.895C780.518 87.6185 789.469 73.1328 801.025 60.4375C812.581 47.7422 826.009 37.7324 841.309 30.4082C856.771 23.084 873.535 19.4219 891.602 19.4219C909.505 19.4219 925.7 22.9212 940.186 29.9199C954.834 36.7559 967.367 45.8704 977.783 57.2637C988.363 68.4941 996.257 80.7826 1001.46 94.1289C1002.6 96.8958 1003.17 99.9883 1003.17 103.406C1003.17 110.079 1000.73 115.857 995.85 120.74C991.13 125.46 985.433 127.82 978.76 127.82C974.202 127.82 969.727 126.274 965.332 123.182C960.938 120.089 957.845 116.346 956.055 111.951C951.497 100.232 943.522 90.0599 932.129 81.4336C920.898 72.6445 907.389 68.25 891.602 68.25C876.79 68.25 863.444 72.4004 851.562 80.7012C839.844 88.8392 830.566 99.5 823.73 112.684C816.895 125.867 813.477 140.109 813.477 155.408C813.477 170.87 816.976 185.438 823.975 199.109C830.973 212.618 840.576 223.605 852.783 232.068C864.99 240.369 878.743 244.52 894.043 244.52C909.017 244.52 921.956 240.776 932.861 233.289C943.766 225.639 951.986 216.769 957.52 206.678C959.473 203.097 962.565 200.086 966.797 197.645C971.029 195.04 975.179 193.738 979.248 193.738C985.921 193.738 991.618 196.18 996.338 201.062C1001.22 205.783 1003.66 211.479 1003.66 218.152C1003.66 222.221 1002.6 226.209 1000.49 230.115C991.211 247.205 977.376 262.016 958.984 274.549C940.592 287.081 918.945 293.348 894.043 293.348C875.488 293.348 858.317 289.686 842.529 282.361C826.904 274.874 813.232 264.702 801.514 251.844C789.958 238.986 780.924 224.337 774.414 207.898C767.904 191.297 764.648 173.8 764.648 155.408ZM1214.06 19.666C1232.78 19.666 1250.2 23.2467 1266.31 30.4082C1282.58 37.5697 1296.83 47.498 1309.03 60.1934C1321.24 72.8887 1330.76 87.4557 1337.6 103.895C1344.6 120.333 1348.1 137.83 1348.1 156.385C1348.1 174.614 1344.6 191.948 1337.6 208.387C1330.6 224.663 1320.91 239.067 1308.54 251.6C1296.34 263.969 1282.1 273.735 1265.82 280.896C1249.71 288.058 1232.45 291.639 1214.06 291.639C1195.83 291.639 1178.58 288.139 1162.3 281.141C1146.19 274.142 1131.95 264.458 1119.58 252.088C1107.37 239.718 1097.77 225.395 1090.77 209.119C1083.77 192.68 1080.27 175.102 1080.27 156.385C1080.27 137.83 1083.77 120.333 1090.77 103.895C1097.77 87.4557 1107.37 72.9701 1119.58 60.4375C1131.95 47.7422 1146.19 37.8138 1162.3 30.6523C1178.42 23.3281 1195.67 19.666 1214.06 19.666ZM1129.59 156.873C1129.59 172.661 1133.41 187.065 1141.06 200.086C1148.88 212.944 1159.21 223.198 1172.07 230.848C1184.93 238.497 1199.01 242.322 1214.31 242.322C1229.93 242.322 1244.09 238.416 1256.79 230.604C1269.65 222.628 1279.82 212.13 1287.3 199.109C1294.95 186.089 1298.78 171.847 1298.78 156.385C1298.78 140.597 1295.04 126.111 1287.55 112.928C1280.06 99.5814 1269.89 88.9206 1257.03 80.9453C1244.34 72.9701 1230.01 68.9824 1214.06 68.9824C1197.95 68.9824 1183.54 73.0514 1170.85 81.1895C1158.15 89.1647 1148.06 99.8255 1140.58 113.172C1133.25 126.355 1129.59 140.923 1129.59 156.873ZM1556.05 19.666C1574.77 19.666 1592.19 23.2467 1608.3 30.4082C1624.58 37.5697 1638.82 47.498 1651.03 60.1934C1663.23 72.8887 1672.75 87.4557 1679.59 103.895C1686.59 120.333 1690.09 137.83 1690.09 156.385C1690.09 174.614 1686.59 191.948 1679.59 208.387C1672.59 224.663 1662.91 239.067 1650.54 251.6C1638.33 263.969 1624.09 273.735 1607.81 280.896C1591.7 288.058 1574.45 291.639 1556.05 291.639C1537.83 291.639 1520.57 288.139 1504.3 281.141C1488.18 274.142 1473.94 264.458 1461.57 252.088C1449.37 239.718 1439.76 225.395 1432.76 209.119C1425.76 192.68 1422.27 175.102 1422.27 156.385C1422.27 137.83 1425.76 120.333 1432.76 103.895C1439.76 87.4557 1449.37 72.9701 1461.57 60.4375C1473.94 47.7422 1488.18 37.8138 1504.3 30.6523C1520.41 23.3281 1537.66 19.666 1556.05 19.666ZM1471.58 156.873C1471.58 172.661 1475.41 187.065 1483.06 200.086C1490.87 212.944 1501.2 223.198 1514.06 230.848C1526.92 238.497 1541 242.322 1556.3 242.322C1571.92 242.322 1586.08 238.416 1598.78 230.604C1611.64 222.628 1621.81 212.13 1629.3 199.109C1636.95 186.089 1640.77 171.847 1640.77 156.385C1640.77 140.597 1637.03 126.111 1629.54 112.928C1622.05 99.5814 1611.88 88.9206 1599.02 80.9453C1586.33 72.9701 1572.01 68.9824 1556.05 68.9824C1539.94 68.9824 1525.54 73.0514 1512.84 81.1895C1500.15 89.1647 1490.06 99.8255 1482.57 113.172C1475.24 126.355 1471.58 140.923 1471.58 156.873ZM1824.07 58.2402C1832.86 49.6139 1843.36 41.069 1855.57 32.6055C1867.94 24.1419 1882.26 19.9102 1898.54 19.9102C1919.86 19.9102 1937.6 25.6068 1951.76 37C1965.92 48.2305 1976.33 61.3327 1983.01 76.3066C1988.22 88.1882 1991.31 99.9883 1992.29 111.707C1993.42 123.263 1993.99 134.168 1993.99 144.422V267.713C1993.99 274.386 1991.55 280.164 1986.67 285.047C1981.95 289.767 1976.25 292.127 1969.58 292.127C1962.91 292.127 1957.13 289.767 1952.25 285.047C1947.53 280.164 1945.17 274.386 1945.17 267.713V144.422C1945.17 134.819 1944.68 125.949 1943.7 117.811C1942.89 109.673 1941.1 102.511 1938.33 96.3262C1935.24 89.1647 1930.44 82.8171 1923.93 77.2832C1917.42 71.5866 1909.11 68.7383 1899.02 68.7383C1874.93 68.7383 1856.38 77.9342 1843.36 96.3262C1830.5 114.718 1824.15 139.539 1824.32 170.789L1824.56 268.201C1824.56 274.874 1822.12 280.652 1817.24 285.535C1812.52 290.255 1806.82 292.615 1800.15 292.615C1793.31 292.615 1787.53 290.255 1782.81 285.535C1778.09 280.652 1775.73 274.793 1775.73 267.957L1775.24 43.5918C1775.24 36.9186 1777.03 31.222 1780.62 26.502C1784.36 21.6191 1789.57 19.1777 1796.24 19.1777C1802.91 19.1777 1808.04 21.6191 1811.62 26.502C1815.2 31.222 1817.97 36.9186 1819.92 43.5918L1824.07 58.2402ZM2312.79 18.6895C2319.47 18.6895 2325.16 21.1309 2329.88 26.0137C2334.77 30.7337 2337.21 36.4303 2337.21 43.1035V43.5918L2335.5 276.746C2335.34 294.975 2331.59 312.146 2324.27 328.26C2317.11 344.373 2307.18 358.615 2294.48 370.984C2281.79 383.354 2267.22 393.038 2250.78 400.037C2234.51 407.036 2217.17 410.535 2198.78 410.535C2178.11 410.535 2158.33 405.978 2139.45 396.863C2120.74 387.911 2104.87 375.298 2091.85 359.021C2088.1 354.301 2086.23 349.093 2086.23 343.396C2086.23 336.723 2088.59 330.945 2093.31 326.062C2098.19 321.342 2103.97 318.982 2110.64 318.982C2113.9 318.982 2117.4 319.878 2121.14 321.668C2125.05 323.458 2128.06 325.737 2130.18 328.504C2138.31 338.595 2148.57 346.652 2160.94 352.674C2173.47 358.696 2186.17 361.707 2199.02 361.707C2214.81 361.707 2229.3 357.801 2242.48 349.988C2255.83 342.176 2266.49 331.759 2274.46 318.738C2282.6 305.717 2286.67 291.476 2286.67 276.014V252.088C2277.07 267.062 2265.43 277.397 2251.76 283.094C2238.25 288.628 2224.41 291.395 2210.25 291.395C2192.51 291.395 2175.99 287.57 2160.69 279.92C2145.56 272.27 2132.37 261.935 2121.14 248.914C2109.91 235.893 2101.12 221.163 2094.78 204.725C2088.59 188.123 2085.5 171.033 2085.5 153.455C2085.5 135.877 2088.59 119.113 2094.78 103.162C2101.12 87.0488 2109.91 72.7259 2121.14 60.1934C2132.37 47.6608 2145.56 37.7324 2160.69 30.4082C2175.83 23.084 2192.35 19.4219 2210.25 19.4219C2225.72 19.4219 2240.2 23.0026 2253.71 30.1641C2267.22 37.3255 2278.69 48.2305 2288.13 62.8789L2291.8 43.3477C2293.1 36.6745 2295.21 30.8965 2298.14 26.0137C2301.07 21.1309 2305.96 18.6895 2312.79 18.6895ZM2286.18 153.699C2286.18 138.888 2282.93 125.053 2276.42 112.195C2269.91 99.1745 2260.95 88.5951 2249.56 80.457C2238.33 72.319 2225.47 68.25 2210.99 68.25C2196.18 68.25 2182.99 72.319 2171.44 80.457C2160.04 88.4323 2151.01 98.9303 2144.34 111.951C2137.83 124.809 2134.57 138.644 2134.57 153.455C2134.57 168.104 2137.83 182.264 2144.34 195.936C2150.85 209.445 2159.8 220.594 2171.19 229.383C2182.58 238.172 2195.61 242.566 2210.25 242.566C2224.74 242.566 2237.68 238.253 2249.07 229.627C2260.63 221.001 2269.66 209.933 2276.17 196.424C2282.85 182.752 2286.18 168.51 2286.18 153.699Z" fill="url(#paint2_linear_363_236)"/>
    <defs>
        <filter id="filter0_i_363_236" x="0" y="0" width="605" height="605" filterUnits="userSpaceOnUse" color-interpolation-filters="sRGB">
            <feFlood flood-opacity="0" result="BackgroundImageFix"/>
            <feBlend mode="normal" in="SourceGraphic" in2="BackgroundImageFix" result="shape"/>
            <feColorMatrix in="SourceAlpha" type="matrix" values="0 0 0 0 0 0 0 0 0 0 0 0 0 0 0 0 0 0 127 0" result="hardAlpha"/>
            <feOffset dx="5" dy="5"/>
            <feGaussianBlur stdDeviation="5"/>
            <feComposite in2="hardAlpha" operator="arithmetic" k2="-1" k3="1"/>
            <feColorMatrix type="matrix" values="0 0 0 0 0 0 0 0 0 0 0 0 0 0 0 0 0 0 0.25 0"/>
            <feBlend mode="normal" in2="shape" result="effect1_innerShadow_363_236"/>
        </filter>
        <linearGradient id="paint0_linear_363_236" x1="299.96" y1="0" x2="299.96" y2="600" gradientUnits="userSpaceOnUse">
            <stop stop-color="#1C9DFF"/>
            <stop offset="1" stop-color="#1A88DB"/>
        </linearGradient>
        <linearGradient id="paint1_linear_363_236" x1="1239.43" y1="360" x2="1239.43" y2="568" gradientUnits="userSpaceOnUse">
            <stop stop-color="#1C9DFF"/>
            <stop offset="1" stop-color="#1A88DB"/>
        </linearGradient>
        <linearGradient id="paint2_linear_363_236" x1="1555.89" y1="12" x2="1555.89" y2="507" gradientUnits="userSpaceOnUse">
            <stop stop-color="#1C9DFF"/>
            <stop offset="1" stop-color="#1A88DB"/>
        </linearGradient>
    </defs>
</svg>
