<svg width="800" height="800" viewBox="0 0 800 800" fill="none" xmlns="http://www.w3.org/2000/svg">
    <rect width="800" height="800" rx="100" fill="#1A88DB"/>
    <circle cx="399" cy="400" r="315" fill="#1A88DB"/>
    <circle cx="399" cy="400" r="300" fill="#1A88DB"/>
    <g filter="url(#filter0_i_324_182)">
        <path fill-rule="evenodd" clip-rule="evenodd" d="M449.998 649.878C449.998 673.808 471.683 692.105 494.371 684.496C613.26 644.624 698.92 532.316 698.92 400C698.92 234.315 564.605 100 398.92 100C233.234 100 98.9199 234.315 98.9199 400C98.9199 533.212 185.745 646.146 305.891 685.297C328.521 692.671 349.998 674.406 349.998 650.604V650.604C349.998 632.518 337.28 617.19 320.336 610.867C234.865 578.968 173.998 496.592 173.998 400C173.998 275.736 274.734 175 398.998 175C523.262 175 623.998 275.736 623.998 400C623.998 495.964 563.92 577.897 479.324 610.238C462.545 616.653 449.998 631.914 449.998 649.878V649.878ZM398.998 525C468.034 525 523.998 469.036 523.998 400C523.998 330.964 468.034 275 398.998 275C329.962 275 273.998 330.964 273.998 400C273.998 469.036 329.962 525 398.998 525Z" fill="white"/>
    </g>
    <g filter="url(#filter1_d_324_182)">
        <circle cx="399" cy="400" r="50" fill="#1A88DB"/>
    </g>
    <defs>
        <filter id="filter0_i_324_182" x="98.9199" y="100" width="605.002" height="591.953" filterUnits="userSpaceOnUse" color-interpolation-filters="sRGB">
            <feFlood flood-opacity="0" result="BackgroundImageFix"/>
            <feBlend mode="normal" in="SourceGraphic" in2="BackgroundImageFix" result="shape"/>
            <feColorMatrix in="SourceAlpha" type="matrix" values="0 0 0 0 0 0 0 0 0 0 0 0 0 0 0 0 0 0 127 0" result="hardAlpha"/>
            <feOffset dx="5" dy="5"/>
            <feGaussianBlur stdDeviation="5"/>
            <feComposite in2="hardAlpha" operator="arithmetic" k2="-1" k3="1"/>
            <feColorMatrix type="matrix" values="0 0 0 0 0 0 0 0 0 0 0 0 0 0 0 0 0 0 0.25 0"/>
            <feBlend mode="normal" in2="shape" result="effect1_innerShadow_324_182"/>
        </filter>
        <filter id="filter1_d_324_182" x="345" y="350" width="108" height="108" filterUnits="userSpaceOnUse" color-interpolation-filters="sRGB">
            <feFlood flood-opacity="0" result="BackgroundImageFix"/>
            <feColorMatrix in="SourceAlpha" type="matrix" values="0 0 0 0 0 0 0 0 0 0 0 0 0 0 0 0 0 0 127 0" result="hardAlpha"/>
            <feOffset dy="4"/>
            <feGaussianBlur stdDeviation="2"/>
            <feComposite in2="hardAlpha" operator="out"/>
            <feColorMatrix type="matrix" values="0 0 0 0 0 0 0 0 0 0 0 0 0 0 0 0 0 0 0.25 0"/>
            <feBlend mode="normal" in2="BackgroundImageFix" result="effect1_dropShadow_324_182"/>
            <feBlend mode="normal" in="SourceGraphic" in2="effect1_dropShadow_324_182" result="shape"/>
        </filter>
    </defs>
</svg>
