<svg width="2881" height="800" viewBox="0 0 2881 800" fill="none" xmlns="http://www.w3.org/2000/svg">
    <rect width="800" height="800" rx="100" fill="#1A88DB"/>
    <circle cx="399" cy="400" r="315" fill="#1A88DB"/>
    <circle cx="399" cy="400" r="300" fill="#1A88DB"/>
    <g filter="url(#filter0_i_325_206)">
        <path fill-rule="evenodd" clip-rule="evenodd" d="M449.998 649.878C449.998 673.808 471.683 692.105 494.371 684.496C613.26 644.624 698.92 532.316 698.92 400C698.92 234.315 564.605 100 398.92 100C233.234 100 98.9199 234.315 98.9199 400C98.9199 533.212 185.745 646.146 305.891 685.297C328.521 692.671 349.998 674.406 349.998 650.604V650.604C349.998 632.518 337.28 617.19 320.336 610.867C234.865 578.968 173.998 496.592 173.998 400C173.998 275.736 274.734 175 398.998 175C523.262 175 623.998 275.736 623.998 400C623.998 495.964 563.92 577.897 479.324 610.238C462.545 616.653 449.998 631.914 449.998 649.878V649.878ZM398.998 525C468.034 525 523.998 469.036 523.998 400C523.998 330.964 468.034 275 398.998 275C329.962 275 273.998 330.964 273.998 400C273.998 469.036 329.962 525 398.998 525Z" fill="white"/>
    </g>
    <g filter="url(#filter1_d_325_206)">
        <circle cx="399" cy="400" r="50" fill="#1A88DB"/>
    </g>
    <path d="M942.578 242.09C942.578 220.41 946.387 199.805 954.004 180.273C961.621 160.742 972.363 143.359 986.23 128.125C1000.1 112.891 1016.21 100.879 1034.57 92.0898C1053.12 83.3008 1073.24 78.9062 1094.92 78.9062C1116.41 78.9062 1135.84 83.1055 1153.22 91.5039C1170.8 99.707 1185.84 110.645 1198.34 124.316C1211.04 137.793 1220.51 152.539 1226.76 168.555C1228.12 171.875 1228.81 175.586 1228.81 179.688C1228.81 187.695 1225.88 194.629 1220.02 200.488C1214.36 206.152 1207.52 208.984 1199.51 208.984C1194.04 208.984 1188.67 207.129 1183.4 203.418C1178.12 199.707 1174.41 195.215 1172.27 189.941C1166.8 175.879 1157.23 163.672 1143.55 153.32C1130.08 142.773 1113.87 137.5 1094.92 137.5C1077.15 137.5 1061.13 142.48 1046.88 152.441C1032.81 162.207 1021.68 175 1013.48 190.82C1005.27 206.641 1001.17 223.73 1001.17 242.09C1001.17 260.645 1005.37 278.125 1013.77 294.531C1022.17 310.742 1033.69 323.926 1048.34 334.082C1062.99 344.043 1079.49 349.023 1097.85 349.023C1115.82 349.023 1131.35 344.531 1144.43 335.547C1157.52 326.367 1167.38 315.723 1174.02 303.613C1176.37 299.316 1180.08 295.703 1185.16 292.773C1190.23 289.648 1195.21 288.086 1200.1 288.086C1208.11 288.086 1214.94 291.016 1220.61 296.875C1226.46 302.539 1229.39 309.375 1229.39 317.383C1229.39 322.266 1228.12 327.051 1225.59 331.738C1214.45 352.246 1197.85 370.02 1175.78 385.059C1153.71 400.098 1127.73 407.617 1097.85 407.617C1075.59 407.617 1054.98 403.223 1036.04 394.434C1017.29 385.449 1000.88 373.242 986.816 357.812C972.949 342.383 962.109 324.805 954.297 305.078C946.484 285.156 942.578 264.16 942.578 242.09ZM1481.88 79.1992C1504.34 79.1992 1525.23 83.4961 1544.57 92.0898C1564.1 100.684 1581.19 112.598 1595.84 127.832C1610.49 143.066 1621.91 160.547 1630.12 180.273C1638.52 200 1642.71 220.996 1642.71 243.262C1642.71 265.137 1638.52 285.938 1630.12 305.664C1621.72 325.195 1610.1 342.48 1595.25 357.52C1580.61 372.363 1563.52 384.082 1543.98 392.676C1524.65 401.27 1503.95 405.566 1481.88 405.566C1460 405.566 1439.3 401.367 1419.77 392.969C1400.43 384.57 1383.34 372.949 1368.5 358.105C1353.85 343.262 1342.32 326.074 1333.93 306.543C1325.53 286.816 1321.33 265.723 1321.33 243.262C1321.33 220.996 1325.53 200 1333.93 180.273C1342.32 160.547 1353.85 143.164 1368.5 128.125C1383.34 112.891 1400.43 100.977 1419.77 92.3828C1439.1 83.5938 1459.8 79.1992 1481.88 79.1992ZM1380.51 243.848C1380.51 262.793 1385.1 280.078 1394.28 295.703C1403.65 311.133 1416.05 323.438 1431.48 332.617C1446.91 341.797 1463.81 346.387 1482.17 346.387C1500.92 346.387 1517.91 341.699 1533.14 332.324C1548.57 322.754 1560.78 310.156 1569.77 294.531C1578.95 278.906 1583.54 261.816 1583.54 243.262C1583.54 224.316 1579.04 206.934 1570.06 191.113C1561.07 175.098 1548.87 162.305 1533.44 152.734C1518.2 143.164 1501.02 138.379 1481.88 138.379C1462.54 138.379 1445.25 143.262 1430.02 153.027C1414.79 162.598 1402.68 175.391 1393.69 191.406C1384.9 207.227 1380.51 224.707 1380.51 243.848ZM1892.27 79.1992C1914.73 79.1992 1935.62 83.4961 1954.96 92.0898C1974.49 100.684 1991.58 112.598 2006.23 127.832C2020.88 143.066 2032.3 160.547 2040.51 180.273C2048.91 200 2053.11 220.996 2053.11 243.262C2053.11 265.137 2048.91 285.938 2040.51 305.664C2032.11 325.195 2020.49 342.48 2005.64 357.52C1991 372.363 1973.91 384.082 1954.38 392.676C1935.04 401.27 1914.34 405.566 1892.27 405.566C1870.39 405.566 1849.69 401.367 1830.16 392.969C1810.82 384.57 1793.73 372.949 1778.89 358.105C1764.24 343.262 1752.71 326.074 1744.32 306.543C1735.92 286.816 1731.72 265.723 1731.72 243.262C1731.72 220.996 1735.92 200 1744.32 180.273C1752.71 160.547 1764.24 143.164 1778.89 128.125C1793.73 112.891 1810.82 100.977 1830.16 92.3828C1849.49 83.5938 1870.2 79.1992 1892.27 79.1992ZM1790.9 243.848C1790.9 262.793 1795.49 280.078 1804.67 295.703C1814.04 311.133 1826.45 323.438 1841.88 332.617C1857.3 341.797 1874.2 346.387 1892.56 346.387C1911.31 346.387 1928.3 341.699 1943.54 332.324C1958.96 322.754 1971.17 310.156 1980.16 294.531C1989.34 278.906 1993.93 261.816 1993.93 243.262C1993.93 224.316 1989.43 206.934 1980.45 191.113C1971.46 175.098 1959.26 162.305 1943.83 152.734C1928.59 143.164 1911.41 138.379 1892.27 138.379C1872.93 138.379 1855.64 143.262 1840.41 153.027C1825.18 162.598 1813.07 175.391 1804.08 191.406C1795.29 207.227 1790.9 224.707 1790.9 243.848ZM2213.89 125.488C2224.43 115.137 2237.03 104.883 2251.68 94.7266C2266.52 84.5703 2283.71 79.4922 2303.24 79.4922C2328.83 79.4922 2350.12 86.3281 2367.11 100C2384.1 113.477 2396.6 129.199 2404.61 147.168C2410.86 161.426 2414.57 175.586 2415.74 189.648C2417.11 203.516 2417.79 216.602 2417.79 228.906V376.855C2417.79 384.863 2414.86 391.797 2409 397.656C2403.34 403.32 2396.5 406.152 2388.5 406.152C2380.49 406.152 2373.55 403.32 2367.7 397.656C2362.03 391.797 2359.2 384.863 2359.2 376.855V228.906C2359.2 217.383 2358.61 206.738 2357.44 196.973C2356.46 187.207 2354.32 178.613 2351 171.191C2347.29 162.598 2341.52 154.98 2333.71 148.34C2325.9 141.504 2315.94 138.086 2303.83 138.086C2274.92 138.086 2252.66 149.121 2237.03 171.191C2221.6 193.262 2213.98 223.047 2214.18 260.547L2214.47 377.441C2214.47 385.449 2211.54 392.383 2205.68 398.242C2200.02 403.906 2193.18 406.738 2185.18 406.738C2176.97 406.738 2170.04 403.906 2164.38 398.242C2158.71 392.383 2155.88 385.352 2155.88 377.148L2155.29 107.91C2155.29 99.9023 2157.44 93.0664 2161.74 87.4023C2166.23 81.543 2172.48 78.6133 2180.49 78.6133C2188.5 78.6133 2194.65 81.543 2198.95 87.4023C2203.24 93.0664 2206.56 99.9023 2208.91 107.91L2213.89 125.488ZM2800.35 78.0273C2808.36 78.0273 2815.2 80.957 2820.86 86.8164C2826.72 92.4805 2829.65 99.3164 2829.65 107.324V107.91L2827.6 387.695C2827.4 409.57 2822.91 430.176 2814.12 449.512C2805.53 468.848 2793.61 485.938 2778.38 500.781C2763.14 515.625 2745.66 527.246 2725.94 535.645C2706.41 544.043 2685.61 548.242 2663.54 548.242C2638.73 548.242 2615 542.773 2592.34 531.836C2569.88 521.094 2550.84 505.957 2535.21 486.426C2530.72 480.762 2528.48 474.512 2528.48 467.676C2528.48 459.668 2531.31 452.734 2536.97 446.875C2542.83 441.211 2549.77 438.379 2557.77 438.379C2561.68 438.379 2565.88 439.453 2570.37 441.602C2575.06 443.75 2578.67 446.484 2581.21 449.805C2590.98 461.914 2603.28 471.582 2618.12 478.809C2633.16 486.035 2648.4 489.648 2663.83 489.648C2682.77 489.648 2700.16 484.961 2715.98 475.586C2731.99 466.211 2744.79 453.711 2754.36 438.086C2764.12 422.461 2769 405.371 2769 386.816V358.105C2757.48 376.074 2743.52 388.477 2727.11 395.312C2710.9 401.953 2694.3 405.273 2677.3 405.273C2656.02 405.273 2636.19 400.684 2617.83 391.504C2599.67 382.324 2583.85 369.922 2570.37 354.297C2556.89 338.672 2546.35 320.996 2538.73 301.27C2531.31 281.348 2527.6 260.84 2527.6 239.746C2527.6 218.652 2531.31 198.535 2538.73 179.395C2546.35 160.059 2556.89 142.871 2570.37 127.832C2583.85 112.793 2599.67 100.879 2617.83 92.0898C2636 83.3008 2655.82 78.9062 2677.3 78.9062C2695.86 78.9062 2713.24 83.2031 2729.45 91.7969C2745.66 100.391 2759.43 113.477 2770.76 131.055L2775.16 107.617C2776.72 99.6094 2779.26 92.6758 2782.77 86.8164C2786.29 80.957 2792.15 78.0273 2800.35 78.0273ZM2768.42 240.039C2768.42 222.266 2764.51 205.664 2756.7 190.234C2748.89 174.609 2738.14 161.914 2724.47 152.148C2711 142.383 2695.57 137.5 2678.18 137.5C2660.41 137.5 2644.59 142.383 2630.72 152.148C2617.05 161.719 2606.21 174.316 2598.2 189.941C2590.39 205.371 2586.48 221.973 2586.48 239.746C2586.48 257.324 2590.39 274.316 2598.2 290.723C2606.02 306.934 2616.76 320.312 2630.43 330.859C2644.1 341.406 2659.73 346.68 2677.3 346.68C2694.69 346.68 2710.21 341.504 2723.89 331.152C2737.75 320.801 2748.59 307.52 2756.41 291.309C2764.41 274.902 2768.42 257.812 2768.42 240.039Z" fill="#1A88DB"/>
    <path d="M943.324 568.611C943.324 565.389 944.74 562.557 947.572 560.115C950.404 557.674 953.432 556.453 956.654 556.453C959.975 556.453 962.904 557.381 965.443 559.236C968.08 561.092 969.789 563.387 970.57 566.121L999.867 665.584L1034.58 568.025H1034.73C1037.17 563.729 1041.47 561.58 1047.62 561.58C1050.45 561.58 1053.09 562.215 1055.53 563.484C1057.97 564.656 1059.68 566.219 1060.66 568.172V568.318L1094.35 663.24L1121.45 566.268C1122.23 563.631 1123.84 561.336 1126.28 559.383C1128.72 557.43 1131.7 556.453 1135.22 556.453C1138.34 556.453 1141.37 557.625 1144.3 559.969C1147.23 562.215 1148.7 565.047 1148.7 568.465C1148.7 570.613 1148.5 572.322 1148.11 573.592L1109.73 708.943C1109.05 711.385 1107.44 713.68 1104.9 715.828C1102.46 717.879 1099.62 718.904 1096.4 718.904C1093.37 718.904 1090.64 718.074 1088.2 716.414C1085.85 714.656 1084.19 712.605 1083.22 710.262L1047.77 612.264L1011.73 711.141C1010.76 713.777 1009 715.877 1006.46 717.439C1004.02 719.1 1001.33 719.93 998.402 719.93C995.375 719.93 992.592 719.002 990.053 717.146C987.611 715.291 986 712.996 985.219 710.262L943.764 573.738C943.471 572.273 943.324 570.564 943.324 568.611ZM1269.96 555.867C1277.18 555.867 1284.21 557.332 1291.05 560.262C1297.98 563.094 1304.13 566.707 1309.51 571.102C1314.97 575.398 1319.03 579.842 1321.66 584.432L1323.28 570.369C1323.28 566.365 1324.45 562.947 1326.79 560.115C1329.13 557.186 1332.31 555.721 1336.31 555.721C1340.32 555.721 1343.73 557.186 1346.57 560.115C1349.5 562.947 1350.96 566.365 1350.96 570.369V570.662L1350.67 706.307C1350.67 710.311 1349.2 713.777 1346.27 716.707C1343.44 719.539 1340.02 720.955 1336.02 720.955C1332.02 720.955 1328.84 719.539 1326.5 716.707C1324.15 713.777 1322.98 710.311 1322.98 706.307L1321.37 694.588C1316.29 703.279 1308.87 709.773 1299.11 714.07C1289.34 718.27 1279.53 720.369 1269.66 720.369C1258.63 720.369 1248.28 718.221 1238.61 713.924C1228.94 709.529 1220.44 703.523 1213.12 695.906C1205.79 688.289 1200.03 679.549 1195.83 669.686C1191.73 659.822 1189.68 649.422 1189.68 638.484C1189.68 627.645 1191.68 617.293 1195.69 607.43C1199.79 597.469 1205.45 588.631 1212.68 580.916C1220 573.104 1228.5 567 1238.17 562.605C1247.93 558.113 1258.53 555.867 1269.96 555.867ZM1320.49 638.191C1320.49 628.621 1318.25 619.832 1313.75 611.824C1309.36 603.816 1303.35 597.371 1295.74 592.488C1288.12 587.605 1279.43 585.164 1269.66 585.164C1260.09 585.164 1251.45 587.605 1243.73 592.488C1236.02 597.371 1229.92 603.865 1225.42 611.971C1220.93 619.979 1218.69 628.67 1218.69 638.045C1218.69 647.518 1220.98 656.307 1225.57 664.412C1230.16 672.42 1236.31 678.865 1244.03 683.748C1251.84 688.631 1260.43 691.072 1269.81 691.072C1279.18 691.072 1287.68 688.631 1295.3 683.748C1303.01 678.865 1309.12 672.42 1313.61 664.412C1318.2 656.307 1320.49 647.566 1320.49 638.191ZM1423.44 503.279C1428.13 503.279 1431.89 504.842 1434.72 507.967C1437.55 510.994 1438.92 514.314 1438.82 517.928V706.6C1438.82 710.506 1437.26 713.68 1434.13 716.121C1431.11 718.465 1428.08 719.637 1425.05 719.637C1420.85 719.637 1417.19 718.27 1414.07 715.535C1411.04 712.801 1409.53 709.285 1409.53 704.988V517.928C1409.53 514.217 1410.84 510.848 1413.48 507.82C1416.21 504.793 1419.54 503.279 1423.44 503.279ZM1510.57 503.279C1515.26 503.279 1519.02 504.842 1521.85 507.967C1524.68 510.994 1526.05 514.314 1525.95 517.928V706.6C1525.95 710.506 1524.39 713.68 1521.26 716.121C1518.24 718.465 1515.21 719.637 1512.18 719.637C1507.98 719.637 1504.32 718.27 1501.2 715.535C1498.17 712.801 1496.65 709.285 1496.65 704.988V517.928C1496.65 514.217 1497.97 510.848 1500.61 507.82C1503.34 504.793 1506.66 503.279 1510.57 503.279ZM1655.12 557.039C1668.11 557.039 1680.02 560.262 1690.86 566.707C1701.7 573.152 1710.39 581.844 1716.94 592.781C1723.58 603.621 1726.9 615.682 1726.9 628.963C1726.9 631.697 1726.75 634.48 1726.46 637.312C1726.07 640.926 1724.41 644.002 1721.48 646.541C1718.65 648.982 1715.42 650.203 1711.81 650.203L1609.42 650.35C1611.08 657.381 1614.2 663.973 1618.79 670.125C1623.38 676.277 1628.95 681.258 1635.49 685.066C1642.13 688.875 1649.36 690.779 1657.17 690.779C1665.57 690.779 1673.09 688.729 1679.73 684.627C1686.37 680.525 1691.55 675.789 1695.26 670.418C1696.43 668.562 1698.19 667 1700.53 665.73C1702.97 664.461 1705.27 663.826 1707.42 663.826C1711.42 663.826 1714.84 665.291 1717.67 668.221C1720.6 671.15 1722.06 674.617 1722.06 678.621C1722.06 681.746 1721.19 684.529 1719.43 686.971C1713.37 695.857 1705.02 703.572 1694.38 710.115C1683.83 716.561 1671.58 719.783 1657.61 719.783C1646.38 719.783 1635.93 717.586 1626.26 713.191C1616.69 708.797 1608.34 702.791 1601.21 695.174C1594.09 687.557 1588.52 678.816 1584.52 668.953C1580.61 658.992 1578.66 648.494 1578.66 637.459C1578.66 626.814 1580.61 616.707 1584.52 607.137C1588.42 597.469 1593.84 588.875 1600.78 581.355C1607.81 573.836 1615.96 567.928 1625.24 563.631C1634.52 559.236 1644.48 557.039 1655.12 557.039ZM1696.72 620.906C1694.87 611.336 1690.08 603.182 1682.37 596.443C1674.65 589.705 1665.57 586.336 1655.12 586.336C1644.48 586.336 1635.05 589.803 1626.85 596.736C1618.74 603.67 1613.28 611.775 1610.44 621.053L1696.72 620.906ZM1802.31 530.379C1802.31 526.375 1803.72 522.957 1806.56 520.125C1809.39 517.195 1812.86 515.73 1816.96 515.73C1820.96 515.73 1824.38 517.195 1827.21 520.125C1830.14 522.957 1831.61 526.375 1831.61 530.379V559.529H1851.23C1855.04 559.529 1858.31 560.896 1861.05 563.631C1863.78 566.365 1865.15 569.637 1865.15 573.445C1865.15 577.254 1863.78 580.525 1861.05 583.26C1858.31 585.994 1855.04 587.361 1851.23 587.361H1831.46L1831.31 678.035V678.328C1831.31 683.113 1831.85 686.434 1832.92 688.289C1834 690.047 1836.2 690.926 1839.52 690.926C1843.71 690.926 1847.43 689.803 1850.65 687.557C1851.82 686.775 1853.24 686.092 1854.9 685.506C1856.56 684.822 1858.17 684.48 1859.73 684.48C1863.73 684.48 1867.15 685.896 1869.98 688.729C1872.91 691.561 1874.38 694.979 1874.38 698.982C1874.38 703.768 1872.43 707.625 1868.52 710.555C1864.81 713.387 1860.56 715.73 1855.78 717.586C1850.99 719.441 1845.86 720.369 1840.39 720.369C1828.09 720.369 1818.62 716.609 1811.98 709.09C1805.34 701.473 1802.02 692 1802.02 680.672V679.354L1802.16 587.508H1783.27C1779.46 587.508 1776.19 586.141 1773.45 583.406C1770.72 580.672 1769.35 577.4 1769.35 573.592C1769.35 569.783 1770.72 566.512 1773.45 563.777C1776.19 561.043 1779.46 559.676 1783.27 559.676H1802.31V530.379Z" fill="#1A88DB"/>
    <defs>
        <filter id="filter0_i_325_206" x="98.9199" y="100" width="605.002" height="591.953" filterUnits="userSpaceOnUse" color-interpolation-filters="sRGB">
            <feFlood flood-opacity="0" result="BackgroundImageFix"/>
            <feBlend mode="normal" in="SourceGraphic" in2="BackgroundImageFix" result="shape"/>
            <feColorMatrix in="SourceAlpha" type="matrix" values="0 0 0 0 0 0 0 0 0 0 0 0 0 0 0 0 0 0 127 0" result="hardAlpha"/>
            <feOffset dx="5" dy="5"/>
            <feGaussianBlur stdDeviation="5"/>
            <feComposite in2="hardAlpha" operator="arithmetic" k2="-1" k3="1"/>
            <feColorMatrix type="matrix" values="0 0 0 0 0 0 0 0 0 0 0 0 0 0 0 0 0 0 0.25 0"/>
            <feBlend mode="normal" in2="shape" result="effect1_innerShadow_325_206"/>
        </filter>
        <filter id="filter1_d_325_206" x="345" y="350" width="108" height="108" filterUnits="userSpaceOnUse" color-interpolation-filters="sRGB">
            <feFlood flood-opacity="0" result="BackgroundImageFix"/>
            <feColorMatrix in="SourceAlpha" type="matrix" values="0 0 0 0 0 0 0 0 0 0 0 0 0 0 0 0 0 0 127 0" result="hardAlpha"/>
            <feOffset dy="4"/>
            <feGaussianBlur stdDeviation="2"/>
            <feComposite in2="hardAlpha" operator="out"/>
            <feColorMatrix type="matrix" values="0 0 0 0 0 0 0 0 0 0 0 0 0 0 0 0 0 0 0.25 0"/>
            <feBlend mode="normal" in2="BackgroundImageFix" result="effect1_dropShadow_325_206"/>
            <feBlend mode="normal" in="SourceGraphic" in2="effect1_dropShadow_325_206" result="shape"/>
        </filter>
    </defs>
</svg>
