<svg width="2313" height="600" viewBox="0 0 2313 600" fill="none" xmlns="http://www.w3.org/2000/svg">
    <g filter="url(#filter0_i_363_236)">
        <path fill-rule="evenodd" clip-rule="evenodd" d="M600 300C600 465.685 465.685 600 300 600C167.253 600 54.6429 513.78 15.1159 394.286C7.61291 371.604 25.9139 350 49.8049 350C67.8486 350 83.1588 362.646 89.5374 379.525C121.666 464.543 203.813 525 300.08 525C424.344 525 525.08 424.264 525.08 300C525.08 175.736 424.344 75 300.08 75C203.813 75 121.666 135.457 89.5374 220.475C83.1588 237.354 67.8486 250 49.8049 250C25.9139 250 7.6129 228.396 15.1159 205.714C54.6428 86.2198 167.253 0 300 0C465.685 0 600 134.315 600 300ZM0.0800781 292.999C0.0267894 295.326 0 297.66 0 300C0 302.34 0.0267894 304.674 0.0800781 307.001V292.999ZM425.08 300C425.08 369.036 369.116 425 300.08 425C231.044 425 175.08 369.036 175.08 300C175.08 230.964 231.044 175 300.08 175C369.116 175 425.08 230.964 425.08 300ZM300.082 350C327.696 350 350.082 327.614 350.082 300C350.082 272.386 327.696 250 300.082 250C272.468 250 250.082 272.386 250.082 300C250.082 327.614 272.468 350 300.082 350Z" fill="url(#paint0_linear_363_236)"/>
    </g>
    <path d="M719.402 431.611C719.402 428.389 720.818 425.557 723.65 423.115C726.482 420.674 729.51 419.453 732.732 419.453C736.053 419.453 738.982 420.381 741.521 422.236C744.158 424.092 745.867 426.387 746.648 429.121L775.945 528.584L810.662 431.025H810.809C813.25 426.729 817.547 424.58 823.699 424.58C826.531 424.58 829.168 425.215 831.609 426.484C834.051 427.656 835.76 429.219 836.736 431.172V431.318L870.428 526.24L897.527 429.268C898.309 426.631 899.92 424.336 902.361 422.383C904.803 420.43 907.781 419.453 911.297 419.453C914.422 419.453 917.449 420.625 920.379 422.969C923.309 425.215 924.773 428.047 924.773 431.465C924.773 433.613 924.578 435.322 924.188 436.592L885.809 571.943C885.125 574.385 883.514 576.68 880.975 578.828C878.533 580.879 875.701 581.904 872.479 581.904C869.451 581.904 866.717 581.074 864.275 579.414C861.932 577.656 860.271 575.605 859.295 573.262L823.846 475.264L787.811 574.141C786.834 576.777 785.076 578.877 782.537 580.439C780.096 582.1 777.41 582.93 774.48 582.93C771.453 582.93 768.67 582.002 766.131 580.146C763.689 578.291 762.078 575.996 761.297 573.262L719.842 436.738C719.549 435.273 719.402 433.564 719.402 431.611ZM1046.03 418.867C1053.26 418.867 1060.29 420.332 1067.13 423.262C1074.06 426.094 1080.21 429.707 1085.58 434.102C1091.05 438.398 1095.11 442.842 1097.74 447.432L1099.35 433.369C1099.35 429.365 1100.53 425.947 1102.87 423.115C1105.21 420.186 1108.39 418.721 1112.39 418.721C1116.39 418.721 1119.81 420.186 1122.64 423.115C1125.57 425.947 1127.04 429.365 1127.04 433.369V433.662L1126.75 569.307C1126.75 573.311 1125.28 576.777 1122.35 579.707C1119.52 582.539 1116.1 583.955 1112.1 583.955C1108.09 583.955 1104.92 582.539 1102.58 579.707C1100.23 576.777 1099.06 573.311 1099.06 569.307L1097.45 557.588C1092.37 566.279 1084.95 572.773 1075.18 577.07C1065.42 581.27 1055.6 583.369 1045.74 583.369C1034.71 583.369 1024.35 581.221 1014.69 576.924C1005.02 572.529 996.521 566.523 989.197 558.906C981.873 551.289 976.111 542.549 971.912 532.686C967.811 522.822 965.76 512.422 965.76 501.484C965.76 490.645 967.762 480.293 971.766 470.43C975.867 460.469 981.531 451.631 988.758 443.916C996.082 436.104 1004.58 430 1014.25 425.605C1024.01 421.113 1034.61 418.867 1046.03 418.867ZM1096.57 501.191C1096.57 491.621 1094.32 482.832 1089.83 474.824C1085.44 466.816 1079.43 460.371 1071.81 455.488C1064.2 450.605 1055.51 448.164 1045.74 448.164C1036.17 448.164 1027.53 450.605 1019.81 455.488C1012.1 460.371 1005.99 466.865 1001.5 474.971C997.01 482.979 994.764 491.67 994.764 501.045C994.764 510.518 997.059 519.307 1001.65 527.412C1006.24 535.42 1012.39 541.865 1020.11 546.748C1027.92 551.631 1036.51 554.072 1045.89 554.072C1055.26 554.072 1063.76 551.631 1071.38 546.748C1079.09 541.865 1085.19 535.42 1089.69 527.412C1094.28 519.307 1096.57 510.566 1096.57 501.191ZM1199.52 366.279C1204.21 366.279 1207.97 367.842 1210.8 370.967C1213.63 373.994 1215 377.314 1214.9 380.928V569.6C1214.9 573.506 1213.34 576.68 1210.21 579.121C1207.19 581.465 1204.16 582.637 1201.13 582.637C1196.93 582.637 1193.27 581.27 1190.14 578.535C1187.12 575.801 1185.6 572.285 1185.6 567.988V380.928C1185.6 377.217 1186.92 373.848 1189.56 370.82C1192.29 367.793 1195.61 366.279 1199.52 366.279ZM1286.65 366.279C1291.34 366.279 1295.1 367.842 1297.93 370.967C1300.76 373.994 1302.13 377.314 1302.03 380.928V569.6C1302.03 573.506 1300.47 576.68 1297.34 579.121C1294.31 581.465 1291.29 582.637 1288.26 582.637C1284.06 582.637 1280.4 581.27 1277.27 578.535C1274.25 575.801 1272.73 572.285 1272.73 567.988V380.928C1272.73 377.217 1274.05 373.848 1276.69 370.82C1279.42 367.793 1282.74 366.279 1286.65 366.279ZM1431.2 420.039C1444.19 420.039 1456.1 423.262 1466.94 429.707C1477.78 436.152 1486.47 444.844 1493.02 455.781C1499.66 466.621 1502.98 478.682 1502.98 491.963C1502.98 494.697 1502.83 497.48 1502.54 500.312C1502.15 503.926 1500.49 507.002 1497.56 509.541C1494.72 511.982 1491.5 513.203 1487.89 513.203L1385.5 513.35C1387.16 520.381 1390.28 526.973 1394.87 533.125C1399.46 539.277 1405.03 544.258 1411.57 548.066C1418.21 551.875 1425.44 553.779 1433.25 553.779C1441.65 553.779 1449.17 551.729 1455.81 547.627C1462.45 543.525 1467.62 538.789 1471.34 533.418C1472.51 531.562 1474.27 530 1476.61 528.73C1479.05 527.461 1481.35 526.826 1483.49 526.826C1487.5 526.826 1490.92 528.291 1493.75 531.221C1496.68 534.15 1498.14 537.617 1498.14 541.621C1498.14 544.746 1497.26 547.529 1495.51 549.971C1489.45 558.857 1481.1 566.572 1470.46 573.115C1459.91 579.561 1447.65 582.783 1433.69 582.783C1422.46 582.783 1412.01 580.586 1402.34 576.191C1392.77 571.797 1384.42 565.791 1377.29 558.174C1370.16 550.557 1364.6 541.816 1360.59 531.953C1356.69 521.992 1354.73 511.494 1354.73 500.459C1354.73 489.814 1356.69 479.707 1360.59 470.137C1364.5 460.469 1369.92 451.875 1376.85 444.355C1383.88 436.836 1392.04 430.928 1401.32 426.631C1410.59 422.236 1420.55 420.039 1431.2 420.039ZM1472.8 483.906C1470.95 474.336 1466.16 466.182 1458.45 459.443C1450.73 452.705 1441.65 449.336 1431.2 449.336C1420.55 449.336 1411.13 452.803 1402.93 459.736C1394.82 466.67 1389.35 474.775 1386.52 484.053L1472.8 483.906ZM1578.39 393.379C1578.39 389.375 1579.8 385.957 1582.63 383.125C1585.47 380.195 1588.93 378.73 1593.04 378.73C1597.04 378.73 1600.46 380.195 1603.29 383.125C1606.22 385.957 1607.68 389.375 1607.68 393.379V422.529H1627.31C1631.12 422.529 1634.39 423.896 1637.13 426.631C1639.86 429.365 1641.23 432.637 1641.23 436.445C1641.23 440.254 1639.86 443.525 1637.13 446.26C1634.39 448.994 1631.12 450.361 1627.31 450.361H1607.54L1607.39 541.035V541.328C1607.39 546.113 1607.93 549.434 1609 551.289C1610.08 553.047 1612.27 553.926 1615.59 553.926C1619.79 553.926 1623.5 552.803 1626.73 550.557C1627.9 549.775 1629.31 549.092 1630.97 548.506C1632.63 547.822 1634.25 547.48 1635.81 547.48C1639.81 547.48 1643.23 548.896 1646.06 551.729C1648.99 554.561 1650.46 557.979 1650.46 561.982C1650.46 566.768 1648.5 570.625 1644.6 573.555C1640.89 576.387 1636.64 578.73 1631.85 580.586C1627.07 582.441 1621.94 583.369 1616.47 583.369C1604.17 583.369 1594.7 579.609 1588.05 572.09C1581.41 564.473 1578.09 555 1578.09 543.672V542.354L1578.24 450.508H1559.34C1555.54 450.508 1552.26 449.141 1549.53 446.406C1546.79 443.672 1545.43 440.4 1545.43 436.592C1545.43 432.783 1546.79 429.512 1549.53 426.777C1552.26 424.043 1555.54 422.676 1559.34 422.676H1578.39V393.379Z" fill="url(#paint1_linear_363_236)"/>
    <path d="M714.727 155.408C714.727 137.342 717.9 120.171 724.248 103.895C730.596 87.6185 739.548 73.1328 751.104 60.4375C762.66 47.7422 776.087 37.7324 791.387 30.4082C806.849 23.084 823.613 19.4219 841.68 19.4219C859.583 19.4219 875.778 22.9212 890.264 29.9199C904.912 36.7559 917.445 45.8704 927.861 57.2637C938.441 68.4941 946.335 80.7826 951.543 94.1289C952.682 96.8958 953.252 99.9883 953.252 103.406C953.252 110.079 950.811 115.857 945.928 120.74C941.208 125.46 935.511 127.82 928.838 127.82C924.281 127.82 919.805 126.274 915.41 123.182C911.016 120.089 907.923 116.346 906.133 111.951C901.576 100.232 893.6 90.0599 882.207 81.4336C870.977 72.6445 857.467 68.25 841.68 68.25C826.868 68.25 813.522 72.4004 801.641 80.7012C789.922 88.8392 780.645 99.5 773.809 112.684C766.973 125.867 763.555 140.109 763.555 155.408C763.555 170.87 767.054 185.438 774.053 199.109C781.051 212.618 790.654 223.605 802.861 232.068C815.068 240.369 828.822 244.52 844.121 244.52C859.095 244.52 872.035 240.776 882.939 233.289C893.844 225.639 902.064 216.769 907.598 206.678C909.551 203.097 912.643 200.086 916.875 197.645C921.107 195.04 925.257 193.738 929.326 193.738C935.999 193.738 941.696 196.18 946.416 201.062C951.299 205.783 953.74 211.479 953.74 218.152C953.74 222.221 952.682 226.209 950.566 230.115C941.289 247.205 927.454 262.016 909.062 274.549C890.671 287.081 869.023 293.348 844.121 293.348C825.566 293.348 808.395 289.686 792.607 282.361C776.982 274.874 763.311 264.702 751.592 251.844C740.036 238.986 731.003 224.337 724.492 207.898C717.982 191.297 714.727 173.8 714.727 155.408ZM1164.14 19.666C1182.86 19.666 1200.27 23.2467 1216.39 30.4082C1232.66 37.5697 1246.9 47.498 1259.11 60.1934C1271.32 72.8887 1280.84 87.4557 1287.68 103.895C1294.67 120.333 1298.17 137.83 1298.17 156.385C1298.17 174.614 1294.67 191.948 1287.68 208.387C1280.68 224.663 1270.99 239.067 1258.62 251.6C1246.42 263.969 1232.17 273.735 1215.9 280.896C1199.79 288.058 1182.53 291.639 1164.14 291.639C1145.91 291.639 1128.66 288.139 1112.38 281.141C1096.27 274.142 1082.03 264.458 1069.66 252.088C1057.45 239.718 1047.85 225.395 1040.85 209.119C1033.85 192.68 1030.35 175.102 1030.35 156.385C1030.35 137.83 1033.85 120.333 1040.85 103.895C1047.85 87.4557 1057.45 72.9701 1069.66 60.4375C1082.03 47.7422 1096.27 37.8138 1112.38 30.6523C1128.5 23.3281 1145.75 19.666 1164.14 19.666ZM1079.67 156.873C1079.67 172.661 1083.49 187.065 1091.14 200.086C1098.96 212.944 1109.29 223.198 1122.15 230.848C1135.01 238.497 1149.09 242.322 1164.38 242.322C1180.01 242.322 1194.17 238.416 1206.87 230.604C1219.72 222.628 1229.9 212.13 1237.38 199.109C1245.03 186.089 1248.86 171.847 1248.86 156.385C1248.86 140.597 1245.11 126.111 1237.63 112.928C1230.14 99.5814 1219.97 88.9206 1207.11 80.9453C1194.41 72.9701 1180.09 68.9824 1164.14 68.9824C1148.03 68.9824 1133.62 73.0514 1120.93 81.1895C1108.23 89.1647 1098.14 99.8255 1090.65 113.172C1083.33 126.355 1079.67 140.923 1079.67 156.873ZM1506.13 19.666C1524.85 19.666 1542.27 23.2467 1558.38 30.4082C1574.65 37.5697 1588.9 47.498 1601.1 60.1934C1613.31 72.8887 1622.83 87.4557 1629.67 103.895C1636.67 120.333 1640.17 137.83 1640.17 156.385C1640.17 174.614 1636.67 191.948 1629.67 208.387C1622.67 224.663 1612.99 239.067 1600.62 251.6C1588.41 263.969 1574.17 273.735 1557.89 280.896C1541.78 288.058 1524.52 291.639 1506.13 291.639C1487.9 291.639 1470.65 288.139 1454.38 281.141C1438.26 274.142 1424.02 264.458 1411.65 252.088C1399.44 239.718 1389.84 225.395 1382.84 209.119C1375.84 192.68 1372.34 175.102 1372.34 156.385C1372.34 137.83 1375.84 120.333 1382.84 103.895C1389.84 87.4557 1399.44 72.9701 1411.65 60.4375C1424.02 47.7422 1438.26 37.8138 1454.38 30.6523C1470.49 23.3281 1487.74 19.666 1506.13 19.666ZM1421.66 156.873C1421.66 172.661 1425.49 187.065 1433.13 200.086C1440.95 212.944 1451.28 223.198 1464.14 230.848C1477 238.497 1491.08 242.322 1506.38 242.322C1522 242.322 1536.16 238.416 1548.86 230.604C1561.72 222.628 1571.89 212.13 1579.38 199.109C1587.02 186.089 1590.85 171.847 1590.85 156.385C1590.85 140.597 1587.11 126.111 1579.62 112.928C1572.13 99.5814 1561.96 88.9206 1549.1 80.9453C1536.41 72.9701 1522.08 68.9824 1506.13 68.9824C1490.02 68.9824 1475.62 73.0514 1462.92 81.1895C1450.22 89.1647 1440.13 99.8255 1432.65 113.172C1425.32 126.355 1421.66 140.923 1421.66 156.873ZM1774.15 58.2402C1782.94 49.6139 1793.44 41.069 1805.64 32.6055C1818.01 24.1419 1832.34 19.9102 1848.61 19.9102C1869.93 19.9102 1887.68 25.6068 1901.84 37C1916 48.2305 1926.41 61.3327 1933.09 76.3066C1938.29 88.1882 1941.39 99.9883 1942.36 111.707C1943.5 123.263 1944.07 134.168 1944.07 144.422V267.713C1944.07 274.386 1941.63 280.164 1936.75 285.047C1932.03 289.767 1926.33 292.127 1919.66 292.127C1912.99 292.127 1907.21 289.767 1902.32 285.047C1897.6 280.164 1895.24 274.386 1895.24 267.713V144.422C1895.24 134.819 1894.76 125.949 1893.78 117.811C1892.97 109.673 1891.18 102.511 1888.41 96.3262C1885.32 89.1647 1880.51 82.8171 1874 77.2832C1867.49 71.5866 1859.19 68.7383 1849.1 68.7383C1825.01 68.7383 1806.46 77.9342 1793.44 96.3262C1780.58 114.718 1774.23 139.539 1774.39 170.789L1774.64 268.201C1774.64 274.874 1772.2 280.652 1767.31 285.535C1762.59 290.255 1756.9 292.615 1750.22 292.615C1743.39 292.615 1737.61 290.255 1732.89 285.535C1728.17 280.652 1725.81 274.793 1725.81 267.957L1725.32 43.5918C1725.32 36.9186 1727.11 31.222 1730.69 26.502C1734.44 21.6191 1739.65 19.1777 1746.32 19.1777C1752.99 19.1777 1758.12 21.6191 1761.7 26.502C1765.28 31.222 1768.05 36.9186 1770 43.5918L1774.15 58.2402ZM2262.87 18.6895C2269.54 18.6895 2275.24 21.1309 2279.96 26.0137C2284.84 30.7337 2287.29 36.4303 2287.29 43.1035V43.5918L2285.58 276.746C2285.41 294.975 2281.67 312.146 2274.35 328.26C2267.18 344.373 2257.26 358.615 2244.56 370.984C2231.87 383.354 2217.3 393.038 2200.86 400.037C2184.58 407.036 2167.25 410.535 2148.86 410.535C2128.19 410.535 2108.41 405.978 2089.53 396.863C2070.81 387.911 2054.94 375.298 2041.92 359.021C2038.18 354.301 2036.31 349.093 2036.31 343.396C2036.31 336.723 2038.67 330.945 2043.39 326.062C2048.27 321.342 2054.05 318.982 2060.72 318.982C2063.98 318.982 2067.48 319.878 2071.22 321.668C2075.13 323.458 2078.14 325.737 2080.25 328.504C2088.39 338.595 2098.65 346.652 2111.02 352.674C2123.55 358.696 2136.24 361.707 2149.1 361.707C2164.89 361.707 2179.38 357.801 2192.56 349.988C2205.9 342.176 2216.57 331.759 2224.54 318.738C2232.68 305.717 2236.75 291.476 2236.75 276.014V252.088C2227.15 267.062 2215.51 277.397 2201.84 283.094C2188.33 288.628 2174.49 291.395 2160.33 291.395C2142.59 291.395 2126.07 287.57 2110.77 279.92C2095.63 272.27 2082.45 261.935 2071.22 248.914C2059.99 235.893 2051.2 221.163 2044.85 204.725C2038.67 188.123 2035.58 171.033 2035.58 153.455C2035.58 135.877 2038.67 119.113 2044.85 103.162C2051.2 87.0488 2059.99 72.7259 2071.22 60.1934C2082.45 47.6608 2095.63 37.7324 2110.77 30.4082C2125.91 23.084 2142.43 19.4219 2160.33 19.4219C2175.79 19.4219 2190.28 23.0026 2203.79 30.1641C2217.3 37.3255 2228.77 48.2305 2238.21 62.8789L2241.88 43.3477C2243.18 36.6745 2245.29 30.8965 2248.22 26.0137C2251.15 21.1309 2256.04 18.6895 2262.87 18.6895ZM2236.26 153.699C2236.26 138.888 2233 125.053 2226.49 112.195C2219.98 99.1745 2211.03 88.5951 2199.64 80.457C2188.41 72.319 2175.55 68.25 2161.06 68.25C2146.25 68.25 2133.07 72.319 2121.51 80.457C2110.12 88.4323 2101.09 98.9303 2094.41 111.951C2087.9 124.809 2084.65 138.644 2084.65 153.455C2084.65 168.104 2087.9 182.264 2094.41 195.936C2100.92 209.445 2109.88 220.594 2121.27 229.383C2132.66 238.172 2145.68 242.566 2160.33 242.566C2174.82 242.566 2187.76 238.253 2199.15 229.627C2210.71 221.001 2219.74 209.933 2226.25 196.424C2232.92 182.752 2236.26 168.51 2236.26 153.699Z" fill="url(#paint2_linear_363_236)"/>
    <defs>
        <filter id="filter0_i_363_236" x="0" y="0" width="605" height="605" filterUnits="userSpaceOnUse" color-interpolation-filters="sRGB">
            <feFlood flood-opacity="0" result="BackgroundImageFix"/>
            <feBlend mode="normal" in="SourceGraphic" in2="BackgroundImageFix" result="shape"/>
            <feColorMatrix in="SourceAlpha" type="matrix" values="0 0 0 0 0 0 0 0 0 0 0 0 0 0 0 0 0 0 127 0" result="hardAlpha"/>
            <feOffset dx="5" dy="5"/>
            <feGaussianBlur stdDeviation="5"/>
            <feComposite in2="hardAlpha" operator="arithmetic" k2="-1" k3="1"/>
            <feColorMatrix type="matrix" values="0 0 0 0 0 0 0 0 0 0 0 0 0 0 0 0 0 0 0.25 0"/>
            <feBlend mode="normal" in2="shape" result="effect1_innerShadow_363_236"/>
        </filter>
        <linearGradient id="paint0_linear_363_236" x1="299.96" y1="0" x2="299.96" y2="600" gradientUnits="userSpaceOnUse">
            <stop stop-color="#1C9DFF"/>
            <stop offset="1" stop-color="#1A88DB"/>
        </linearGradient>
        <linearGradient id="paint1_linear_363_236" x1="1189.51" y1="360" x2="1189.51" y2="568" gradientUnits="userSpaceOnUse">
            <stop stop-color="#1C9DFF"/>
            <stop offset="1" stop-color="#1A88DB"/>
        </linearGradient>
        <linearGradient id="paint2_linear_363_236" x1="1505.97" y1="12" x2="1505.97" y2="507" gradientUnits="userSpaceOnUse">
            <stop stop-color="#1C9DFF"/>
            <stop offset="1" stop-color="#1A88DB"/>
        </linearGradient>
    </defs>
</svg>
